P3
50 31
255
157
157
163
165
166
171
172
173
178
178
179
184
183
184
189
186
187
192
188
189
194
189
189
194
189
189
194
188
189
194
188
189
194
189
189
194
189
189
194
189
189
194
189
189
194
189
189
194
189
189
194
188
189
194
189
189
194
189
189
194
189
189
194
189
189
194
189
189
194
189
189
194
189
189
194
189
189
194
189
189
194
189
189
194
189
189
194
189
189
194
189
189
194
188
189
194
189
189
194
189
189
194
189
189
194
188
189
194
189
189
194
188
188
194
189
189
194
189
189
194
188
188
194
188
189
194
188
189
194
188
189
194
186
187
192
183
184
189
178
179
184
172
173
178
165
166
171
157
157
163
165
166
171
176
177
182
185
186
191
193
194
199
199
200
205
203
204
209
205
206
211
206
206
212
206
207
212
206
207
212
206
207
212
206
207
212
206
207
212
206
207
212
206
207
212
206
207
212
206
207
212
206
207
212
206
207
212
206
207
212
206
207
212
206
207
212
206
207
212
206
207
212
206
207
212
206
207
212
206
207
212
206
207
212
206
207
212
206
207
212
206
207
212
206
207
212
206
207
212
206
207
212
206
207
212
206
207
212
206
207
212
206
207
212
206
207
212
206
207
212
206
207
212
206
207
212
206
207
212
205
206
211
203
204
209
199
200
205
193
194
199
185
186
191
176
177
182
165
166
171
173
173
178
186
187
192
197
198
203
206
207
212
212
213
218
217
218
222
220
221
225
221
222
226
220
221
226
221
222
226
221
222
226
221
222
226
220
221
226
220
222
226
220
221
226
220
221
226
220
221
226
220
222
226
220
222
226
220
222
226
220
221
226
220
221
226
220
221
226
220
221
226
220
221
226
220
222
226
220
222
226
221
222
226
220
221
226
221
222
226
220
222
226
220
221
226
220
221
226
220
222
226
220
222
226
220
222
226
220
221
226
220
221
226
220
222
226
220
221
226
220
222
226
220
221
226
220
222
226
219
221
225
217
218
222
212
213
218
206
207
212
197
198
203
185
186
191
173
173
179
179
179
184
193
194
199
206
207
212
216
217
222
223
224
228
228
229
233
231
232
235
232
233
236
232
233
237
232
233
237
232
233
237
232
233
237
232
233
237
232
233
237
232
233
237
232
233
236
232
233
236
232
233
237
232
233
237
232
233
237
232
233
236
232
233
237
232
233
237
232
233
237
232
233
237
232
233
237
232
233
237
232
233
237
232
233
237
232
233
237
232
233
237
232
233
237
232
233
236
232
233
236
232
233
237
232
233
237
232
233
236
232
233
237
232
233
237
232
233
237
232
233
237
232
233
237
232
233
237
231
232
235
228
229
233
223
224
228
215
216
221
206
207
212
193
194
199
178
179
184
183
184
189
199
200
205
212
213
218
223
224
228
231
232
236
236
237
240
239
240
243
239
241
244
239
241
244
239
241
244
239
241
244
239
241
244
239
241
244
239
241
244
239
241
244
239
241
244
239
241
244
239
241
244
239
241
244
239
241
244
239
241
244
239
241
244
239
241
244
239
241
244
239
241
244
239
241
244
239
241
244
239
241
244
239
241
244
239
241
244
239
241
244
239
241
244
239
241
244
239
241
244
239
241
244
239
241
244
239
241
244
239
241
244
239
241
244
239
241
244
239
241
244
239
241
244
239
241
244
239
240
243
236
237
241
231
232
236
223
224
229
212
213
218
199
200
205
182
183
189
186
187
192
203
203
209
217
218
223
228
229
233
236
237
240
242
242
245
245
245
249
246
246
250
246
246
250
246
246
250
246
246
250
246
246
250
246
246
250
246
246
250
245
246
250
245
246
250
246
246
250
246
246
250
246
246
250
246
246
250
246
246
250
246
246
250
246
246
250
246
246
250
246
246
250
245
246
250
245
246
250
246
246
250
246
246
250
245
246
250
246
246
250
245
245
248
245
245
248
244
244
247
245
245
247
245
245
248
245
245
248
245
246
250
246
246
250
246
246
250
246
246
250
246
246
250
246
246
250
244
245
248
242
242
246
236
237
241
228
229
233
217
218
222
203
204
209
186
187
192
188
188
193
205
206
211
219
220
225
231
232
236
239
240
243
245
245
249
247
247
252
248
248
253
248
249
253
247
249
253
247
249
253
247
248
253
248
249
253
247
249
253
247
249
253
248
249
253
247
248
253
248
249
253
248
249
253
247
249
253
248
249
253
247
248
253
248
249
253
248
248
252
249
248
251
247
247
248
245
245
246
245
245
246
244
244
248
247
247
251
239
240
242
218
223
221
223
227
225
230
232
231
230
227
228
229
227
228
227
227
227
247
245
249
246
246
249
247
247
251
248
248
252
241
242
245
237
238
239
241
241
242
241
242
243
241
241
242
235
236
238
219
221
225
205
206
211
188
189
194
188
189
194
206
207
212
220
222
226
232
233
236
239
241
243
246
246
249
248
248
253
248
250
254
247
251
254
247
251
254
246
250
253
247
251
254
246
250
253
246
250
253
247
251
254
247
251
254
246
250
253
246
250
253
247
251
254
247
251
254
247
251
254
247
251
254
247
251
254
243
243
244
245
245
243
248
248
246
249
249
247
227
230
228
220
224
223
201
206
206
203
207
208
172
179
182
165
167
168
192
193
193
240
236
236
242
237
238
242
236
237
242
238
238
238
238
236
225
227
226
206
207
206
223
227
225
221
224
223
223
226
225
223
227
226
233
234
233
233
233
235
220
222
226
206
207
212
188
189
194
188
188
194
206
206
212
220
221
226
232
233
236
239
241
243
245
246
249
248
249
253
247
251
254
247
251
254
246
250
253
246
250
253
247
251
254
247
251
254
247
251
254
246
250
253
246
250
253
247
251
254
247
251
254
247
251
254
247
251
254
246
250
253
247
251
254
247
250
253
231
231
232
222
220
220
221
220
219
215
215
213
180
188
186
160
164
166
232
232
230
236
236
234
237
237
236
191
192
192
181
183
183
242
243
240
244
245
243
250
250
248
250
251
249
246
246
244
246
246
245
244
245
244
236
236
237
231
232
233
222
224
227
171
180
181
199
204
206
212
213
220
216
217
222
205
206
211
188
188
194
189
189
194
206
206
212
220
221
226
232
233
236
239
241
244
245
246
249
248
248
253
247
251
254
246
250
253
247
251
254
247
251
254
246
250
253
247
251
254
246
250
253
246
250
253
246
250
253
247
251
254
246
250
253
247
251
254
247
251
254
247
251
254
247
251
254
247
251
254
230
231
231
219
218
216
220
219
216
213
213
212
165
175
176
137
141
143
216
216
214
217
216
214
215
215
213
143
144
143
179
181
181
216
215
214
217
216
216
217
216
213
217
217
215
215
215
214
216
217
218
217
219
223
214
215
221
212
213
220
203
206
212
160
171
173
194
198
203
211
212
218
218
219
224
205
206
211
188
188
194
188
188
194
206
206
212
220
221
226
232
233
236
239
241
244
245
246
249
248
248
253
246
250
253
247
251
254
247
251
254
247
251
254
247
251
254
247
251
254
247
251
254
247
251
254
247
251
254
246
250
253
247
251
254
246
250
253
247
251
254
246
250
253
247
250
254
247
250
254
229
230
230
218
218
216
212
212
211
156
161
162
138
147
148
122
130
133
144
148
152
141
143
146
162
164
164
106
109
112
175
176
178
216
216
214
216
216
213
215
214
210
216
215
212
210
211
208
213
214
215
216
217
221
201
204
209
139
143
149
116
124
133
139
149
153
157
163
168
209
210
215
218
219
223
206
207
212
188
188
194
188
188
194
206
206
212
220
221
226
232
233
236
239
241
243
246
246
249
248
248
253
247
251
254
247
251
254
247
251
254
246
250
253
246
250
253
247
251
254
247
251
254
247
251
254
246
250
253
247
251
254
246
250
253
246
250
253
247
251
254
247
251
254
248
250
254
248
249
253
229
229
230
215
216
214
166
171
172
134
142
144
123
129
132
134
142
147
137
145
150
112
117
120
136
141
146
129
135
141
115
120
126
190
191
191
214
214
211
215
215
211
215
214
210
210
211
206
211
213
215
214
214
219
165
171
182
124
130
143
132
140
154
129
136
142
152
159
165
194
196
201
220
221
225
206
207
212
188
188
194
188
188
194
206
206
212
220
221
226
232
233
236
239
241
243
245
246
250
247
248
253
247
251
254
247
251
254
247
251
254
247
251
254
247
251
254
247
251
254
246
250
253
247
251
254
247
250
253
248
249
253
248
249
253
248
249
253
249
248
253
249
248
253
249
248
253
249
248
253
235
234
239
150
150
154
128
134
137
128
134
137
132
142
147
139
149
155
131
137
142
103
105
109
136
142
147
138
145
148
128
133
138
128
130
137
202
203
202
213
213
211
213
213
209
209
209
206
210
212
215
201
205
210
133
143
155
107
113
124
126
134
147
126
133
142
141
146
151
215
216
219
220
221
226
206
207
212
188
189
194
188
188
194
206
207
212
220
221
226
232
233
236
239
241
243
245
246
249
248
248
253
247
251
254
247
250
253
248
250
254
248
250
253
248
249
253
248
249
253
248
249
253
248
248
253
249
248
253
249
248
253
248
248
253
248
248
252
248
248
252
248
247
252
248
247
252
248
248
252
248
248
252
183
184
186
94
98
101
134
140
146
139
146
153
143
148
152
184
186
185
177
180
179
121
123
124
115
119
123
131
137
141
123
126
131
161
162
166
211
212
209
211
211
208
208
207
205
210
210
214
171
178
186
93
102
112
172
176
180
187
191
197
117
125
138
149
151
154
232
232
236
219
221
225
205
206
211
188
189
194
189
189
194
206
207
212
220
221
226
232
233
236
239
241
244
245
246
249
247
248
252
247
250
253
248
248
253
248
248
253
249
248
253
248
247
252
248
247
252
248
247
252
248
247
252
248
247
252
248
247
252
248
247
252
248
247
252
248
247
252
248
247
252
248
247
252
248
247
252
247
246
251
219
218
218
172
174
175
138
144
149
143
149
153
210
210
209
212
212
210
212
211
210
207
207
205
120
122
124
115
121
126
129
134
140
117
120
127
120
121
123
146
147
147
153
156
156
137
140
143
116
125
137
126
130
133
209
212
215
206
205
208
143
149
156
195
197
201
230
231
235
218
220
224
204
205
210
187
187
192
188
188
194
205
206
211
220
220
225
231
232
236
239
239
243
244
245
248
246
247
251
247
248
252
248
247
252
248
247
252
248
247
252
248
247
252
248
247
252
248
247
252
248
247
252
247
246
251
247
246
251
247
246
251
247
246
251
247
246
251
247
246
251
246
246
251
246
246
250
245
246
250
220
218
219
172
175
175
115
118
124
171
172
175
203
189
196
201
182
191
206
197
199
204
194
198
193
193
193
82
84
89
128
132
137
127
132
139
85
92
95
57
62
65
63
68
73
129
137
148
88
95
105
175
178
182
198
186
196
192
174
188
147
149
155
202
205
208
229
230
234
217
220
223
203
204
209
186
186
192
187
188
193
204
205
210
219
220
225
230
231
236
239
239
243
244
245
248
247
246
251
248
247
252
248
247
252
248
247
252
247
246
251
247
246
251
247
246
251
247
246
251
246
246
250
246
245
250
245
245
250
245
245
250
245
245
250
244
245
249
244
245
249
243
245
248
243
244
248
242
244
248
217
216
217
175
178
178
133
139
143
176
177
178
201
184
192
197
172
184
196
172
184
195
172
184
205
204
203
96
99
105
124
127
133
124
128
133
194
194
194
199
199
198
196
197
197
164
169
177
74
78
85
191
190
195
190
166
182
191
172
186
151
156
163
206
208
210
227
228
232
215
217
222
202
203
208
184
185
191
187
187
193
203
205
210
219
220
225
229
230
235
238
238
242
243
244
248
246
246
250
247
246
251
247
246
251
247
246
251
246
246
250
245
246
250
245
246
250
245
245
250
244
245
249
243
245
249
243
244
248
241
244
247
241
243
247
240
243
246
239
242
245
238
241
245
238
241
244
238
240
243
193
194
196
133
135
136
132
136
142
159
162
164
207
203
203
196
173
185
194
169
183
194
173
184
204
203
203
105
108
111
98
98
102
102
102
107
194
194
193
206
205
203
205
205
204
139
141
148
63
64
68
195
194
199
189
165
181
193
188
193
113
120
126
197
200
203
225
226
230
213
215
220
199
200
205
183
183
189
186
187
193
203
204
209
218
219
224
229
230
235
237
238
241
242
244
247
245
246
250
246
246
251
245
246
250
246
245
250
245
245
250
244
245
249
244
245
249
242
244
248
241
243
247
239
243
246
239
241
245
238
240
244
238
239
243
237
238
242
236
237
240
234
236
239
232
235
237
228
230
232
206
211
209
177
183
182
138
144
147
128
132
137
196
196
195
204
198
199
198
184
190
205
203
202
192
193
193
70
74
77
119
124
127
124
128
132
197
197
196
206
204
203
205
204
204
146
152
159
58
62
67
187
189
192
197
191
196
169
172
175
171
180
184
204
209
211
218
218
222
210
211
216
196
197
202
180
181
186
186
187
192
202
204
209
218
219
223
228
229
234
236
237
241
241
243
246
244
245
249
245
246
250
245
246
250
244
245
249
243
245
249
242
244
248
240
244
247
239
242
245
239
240
245
238
240
244
237
238
241
236
237
240
233
235
238
231
233
237
229
230
234
226
229
232
224
226
230
210
210
212
205
207
206
181
192
189
161
173
172
123
127
131
131
134
137
188
188
189
203
202
201
190
191
189
117
119
120
88
92
95
121
126
130
122
126
130
201
202
201
203
203
201
202
202
202
142
148
155
72
77
84
138
140
144
181
182
185
131
140
145
190
197
199
198
200
202
207
207
210
205
206
210
192
193
198
177
177
183
186
186
192
203
203
208
217
218
222
228
229
233
235
236
240
239
242
245
243
244
248
245
245
249
243
244
248
242
244
248
240
243
247
239
243
246
239
241
245
238
240
244
238
239
243
236
237
240
234
236
238
231
234
236
229
230
234
227
227
231
223
224
228
219
220
224
216
215
221
205
205
208
205
203
204
198
200
199
185
193
192
153
160
160
121
126
130
110
114
117
98
99
102
91
92
95
92
96
99
114
120
124
119
123
127
135
140
144
134
139
139
155
157
156
158
162
164
133
140
146
106
112
119
75
79
84
105
111
118
166
173
178
198
204
207
194
196
197
204
205
208
199
199
204
187
188
193
172
173
178
185
185
191
202
203
208
216
217
222
228
228
232
234
236
240
238
241
244
240
244
247
241
244
248
240
243
247
239
243
246
238
242
245
238
241
244
238
239
243
237
238
241
236
237
239
233
236
238
230
234
236
228
231
233
226
227
232
223
223
228
219
218
223
214
213
219
208
207
213
201
200
202
203
202
201
203
202
202
198
201
200
183
190
188
121
127
130
118
123
126
99
101
106
116
120
124
116
121
125
112
120
123
147
152
155
193
198
197
199
203
203
189
194
193
199
205
205
172
180
180
112
119
126
100
106
111
109
117
124
159
166
170
198
203
206
188
190
191
196
196
200
193
193
199
181
182
187
167
168
173
184
185
190
201
202
207
216
217
221
227
227
232
233
236
239
238
240
243
239
243
246
239
243
246
238
243
246
239
241
245
239
240
244
238
239
242
237
238
241
236
237
239
233
235
238
230
233
236
229
231
234
227
229
232
225
226
231
222
222
227
218
217
222
212
211
216
203
202
208
195
194
197
201
200
197
200
199
198
193
194
193
130
137
139
111
115
117
181
184
184
149
152
152
136
139
142
122
128
132
176
180
181
203
206
205
205
206
205
207
209
207
213
216
214
211
214
213
193
197
199
131
140
145
161
166
171
173
178
183
122
131
135
169
173
175
182
183
186
191
192
197
187
188
193
176
177
182
163
163
168
184
185
190
200
202
207
216
217
221
226
227
231
233
235
238
238
239
242
239
242
245
239
243
246
239
242
245
239
240
244
238
239
243
237
238
241
236
237
240
235
236
238
231
234
237
230
232
235
228
229
233
226
227
231
224
225
230
221
221
226
218
217
222
214
214
219
207
206
212
175
175
180
134
133
134
167
166
166
181
182
183
121
127
130
131
132
134
190
189
190
190
191
190
174
176
176
104
109
112
207
211
210
204
204
203
199
198
196
199
198
195
197
197
195
195
195
194
192
193
193
166
173
174
166
169
177
148
151
157
101
107
110
128
129
134
135
136
142
177
176
182
178
178
184
171
171
176
159
159
164
184
184
189
200
201
206
214
215
220
225
226
230
232
233
236
237
238
242
239
240
244
238
241
244
238
240
244
238
239
243
237
238
242
236
237
239
235
236
238
232
235
238
230
233
236
229
230
234
227
228
232
225
226
231
222
223
228
220
219
224
216
217
222
211
211
216
203
202
208
191
190
196
172
172
178
140
140
148
107
107
114
79
80
85
61
61
64
109
109
111
146
146
147
167
167
170
76
78
81
195
196
196
196
195
193
197
196
193
198
197
193
195
195
193
193
194
193
189
189
189
178
182
186
124
125
130
92
92
98
116
116
123
148
148
157
163
163
170
169
168
174
168
168
173
162
161
167
152
152
157
181
182
187
197
198
203
212
213
217
222
223
227
229
230
233
234
235
238
236
237
241
237
238
241
236
237
240
236
237
239
234
236
238
232
235
236
230
233
236
229
231
235
229
230
233
227
228
232
224
226
230
222
224
228
220
221
225
216
218
222
211
213
217
208
208
212
202
201
207
196
195
200
189
188
194
182
181
186
173
174
179
163
163
171
150
150
159
130
130
138
101
101
107
63
62
66
72
72
74
188
189
188
192
191
190
194
193
191
194
193
191
192
192
192
190
190
191
181
182
185
166
169
175
120
120
127
148
148
156
160
160
169
166
167
175
171
171
176
170
170
175
165
165
171
158
157
163
146
147
152
178
179
184
193
194
199
207
208
213
217
218
223
224
225
229
228
230
233
231
232
235
231
232
235
230
231
234
229
230
234
228
229
233
227
229
232
226
227
232
225
226
230
224
225
229
222
223
228
220
221
226
218
219
223
216
216
221
212
213
218
209
209
214
206
205
210
201
201
205
197
196
201
192
191
197
187
186
192
183
182
188
177
177
183
172
172
178
164
165
172
155
156
164
142
143
151
117
117
124
119
118
120
152
151
152
181
181
181
188
188
188
187
188
188
184
184
186
158
158
162
128
129
135
147
148
157
159
160
169
168
169
174
173
172
178
173
172
178
170
170
176
164
164
170
156
156
161
145
145
150
174
174
180
188
189
194
200
201
206
209
210
215
217
218
222
221
222
226
223
224
229
224
224
229
223
224
228
222
223
228
221
222
227
220
221
225
219
220
225
218
219
223
217
218
222
215
216
220
214
213
219
211
212
217
209
210
215
206
207
212
204
204
209
201
202
206
198
199
203
195
195
200
191
192
197
189
189
194
184
185
190
182
181
187
178
177
183
174
174
180
170
170
176
165
165
172
157
157
165
147
147
153
121
121
127
90
90
95
112
112
113
135
136
138
124
124
127
115
116
121
149
149
155
159
160
167
168
168
174
173
172
178
174
173
179
173
173
178
170
169
175
163
163
168
154
155
160
143
144
149
168
169
174
180
181
186
191
192
197
199
200
205
206
207
212
210
211
216
212
213
218
213
213
218
212
213
218
212
212
217
211
211
216
210
210
215
208
209
214
207
208
213
206
207
212
205
206
211
204
204
209
202
202
207
200
200
206
198
199
204
196
197
202
194
195
200
192
193
197
189
190
195
188
187
193
185
185
190
182
183
188
180
181
186
178
177
183
176
175
181
174
173
179
172
171
177
170
169
175
168
167
173
164
164
170
161
162
167
158
159
164
154
154
159
162
161
167
166
165
171
169
168
174
170
169
175
172
171
177
174
173
179
173
172
178
171
171
176
167
166
172
161
160
166
152
151
157
141
141
147
160
161
166
171
172
177
180
181
186
187
188
193
192
193
198
196
197
202
197
198
203
198
199
204
197
198
203
197
198
203
196
197
202
195
196
201
195
196
201
193
194
199
192
193
198
191
192
197
190
191
196
189
189
194
187
188
193
186
187
192
185
185
191
183
184
189
181
182
187
179
180
185
177
178
183
176
177
182
175
176
181
173
174
179
171
172
177
170
171
176
169
170
175
168
168
174
168
168
173
167
167
173
167
168
173
168
169
174
170
171
176
171
172
177
172
172
178
172
172
177
171
172
177
171
170
176
170
170
176
170
170
175
169
168
174
166
165
171
162
161
167
156
155
161
149
148
154
139
138
144
152
153
158
160
161
166
167
167
173
173
173
178
177
178
182
179
180
185
180
181
186
180
181
186
180
181
186
180
181
186
179
180
185
178
179
184
178
179
184
177
178
183
176
177
182
176
176
181
174
175
180
173
174
179
172
173
178
171
172
177
170
170
176
169
169
175
168
168
173
166
167
172
165
166
171
164
165
170
163
164
169
162
162
168
161
162
167
160
161
166
160
160
165
159
159
165
159
159
165
160
160
165
160
160
166
160
161
166
161
161
166
161
161
166
161
161
166
160
161
166
161
161
166
161
161
167
161
161
167
161
161
167
160
160
165
157
158
163
154
153
159
149
148
154
142
141
148
135
134
139
