P1
200 125
0001000000000000000000000000000000000000000000000000000000000000000000
0000000000000000000000000000000000000000000000000000000000000000000000
0000000000000000000000000000000000000000000000000000000001000100010101
0100100100000000000000000000000000000000000000000000000000000000000000
0000000000000000000000000000000000000000000000000000000000000000000000
0000000000000000000000000000000000100100101010001000100000000000000001
0010001000100010001000100010001000100100010010001000100010001001000100
0100010010001001000100010001000100010010001001000100010010010001000100
0100010010001001001001000000000000010001001010010001000000000000000000
0000000000000000000000000000000000000000000000000000000000000000000000
0000000000000000000000000000000000000000000000000000000000000000000000
0000000000000000000100100010000000000000000010000000000000000000000000
0000000000000000000000000000000000000000000000000000000000000000000000
0000000000000000000000000000000000000000000000000000000000000000000000
0000100100000000010001010100100000000000000000000000000000000000000000
0000000000000000000000000000000000000000000000000000000000000000000000
0000000000000000000000000000000000000000000000000000000000000000000000
0100100010000000000001000000000000000000000000000000000000000000000000
0000000000000000000000000000000000000000000000000000000000000000000000
0000000000000000000000000000000000000000000000000000000000000000001000
0010001000000000000000000000000000000000000000000000000000000000000000
0000000000000000000000000000000000000000000000000000000000000000000000
0000000000000000000000000000000000000000000000000000100001000100000000
0000000000000000000000000000000000000000000000000000000000000000000000
0000000000000000000000000000000000000000000000000000000000000000000000
0000000000000000000000000000000000000000000000000100010001000000000000
0000000000000000000000000000000000000000000000000000000000000000000000
0000000000000000000000000000000000000000000000000000000000000000000000
0000000000000000000000000000000000010000000000000000000000000000000000
0000000000000000000000000000000000000000000000000000000000000000000000
0000000000000000000000000000000000000000000000000000000000000000000000
0000000000000000000000000001000100100000000000000000000000000000000000
0000000000000000000000000000000000000000000000000000000000000000000000
0000000000000000000000000000000000000000000000000000000000000000000000
0000000000001000000000000000000000000000000000000000000000000000000000
0000000000000000000000000000000000000000000000000000000000000000000000
0000000000000000000000000000000000000000000000000000000000000000000000
0000000100001000000000000000000000000000000000000000000000000000000000
0000000000000000000000000000000000000000000000000000000000000000000000
0000000000000000000000000000000000000000000000000000000000000000000000
0000010000000000000000000000000000000000000000000000000000000000000000
0000000000000000000000000000000000000000000000000000000000000000000000
0000000000000000000000000000000000000000000000000000000100101000000000
0000000000000000000000000000000000000000000000000000000000000000000000
0000000000000000000000000000000000000000000000000000000000000000000000
0000000000000000000000000000000000000000000000000000000000000000000000
0000000000000000000000000000000000000000000000000000000000000000000000
0000000000000000000000000000000000000000000000000000000000000000000000
0000000000000000000000000000000000000000001000000000000000000000000000
0000000000000000000000000000000000000000000000000000000000000000000000
0000000000000000000000000000000000000000000000000000000000000000000000
0000000000000000000000000001000000000000000000000000000000000000000000
0000000000000000000000000000000000000000000000000000000000000000000000
0000000000000000000000000000000000000000000000000000000000000000000000
0000000000000000000000100000000000000000000000000000000000000000000000
0000000000000000000000000000000000000000000000000000000000000000000000
0000000000000000000000000000000000000000000000000000000000000000000000
0000000000000000000000000000000000000000000000000000000000000000000000
0000000000000000000000000000000000000000000000000000000000000000000000
0000000000000000000000000000000000000000000000000000000000000000000100
0000000000000000000000000000000000000000000000000000000000000000000000
0000000000000000000000000000000000000000000000000000000000000000000000
0000000000000000000000000000000000000000000000000000000000000100000000
0000000000000000000000000000000000000000000000000000000000000000000000
0000000000000000000000000000000000000000000000000000000000000000000000
0000000000000000000000000000000000000000000000000000000000000000000000
0000000000000000000000000000000000000000000000000000000000000000000000
0000000000000000000000000000000000000000000000000000000000000000000000
0000000000000000000000000000000000000000000000000000000000000000000000
0000000000000000000000000000000000000000000000000000000000000000000000
0000000000000000000000000000000000000000000000000000000000000000000000
0000000000000000000000000010000100000000000000000000000000000000000000
0000000000000000000000000000000000000000000000000000000000000000000000
0000000000000000000000000000000000000000000000000000000000000000000000
0000000000000000000000000000000000000000000000000000000000000000000000
0000000000000000000000000000000000000000000000000000000000000000000000
0000000000000000000000000000000000000000000000000000000000000000000000
0000000000000000000000000000000000000000000000000000000000000000000000
0000000000000000000000000000000000000000000000000000000000000000000000
0000000000000000000000000000000000000000000000000000000000000000000100
0000000000000000000000000000000000000000000000000000000000000000000000
0000000000000000000000000000000000000000000000000000000000000000000000
0000000000000000000000000000000000000000000000000000000000001000000000
0000000000000000000000000000000000000000000000000000000000000000000000
0000000000000000000000000000000000000000000000000000000000000000000000
0000000000110000000000000000000000000000000000000000000000000000000000
0000000000000000000000000000000000000000000000000000000000000000000000
0000000000000000000000000000000000000110000000000000000000000000000000
0000000000000000000000000000000000000000000000000000000000000000000000
0000000000000000000000000000000000000000000000000000000000000000000000
0000000000000000000000000001111111100000000000000000000000000000000000
0000000000000000000000000000000000000000000000000000000000000000000000
0000000000000000000000000000000000000000000000000000000000000000000000
0000000000000000000000010000000000000000000000000000000000000000000000
0000000000000000010010000000000000000000000000000000000000000000000000
0000000000000000000000000000000000000000000000000000000000000000000000
0000000000001100000000000000000000000000000000000000000000000000000000
0000000000000000000000000000000000000000000000000000000000000000000000
0000000000000000000000000000000000000000000000000000011000000000000000
1110000000000000000000000000000000000000000000000000000000000000000000
0000000000000000000000000000000000000000000000000000000000000000000000
0000000000000000000000000000000000000000100010000000000000001110000000
0000000000000000000000000000000000001000000000000000000000000000000000
0000000000000000000000000000000000000000000000000000000000000000000000
0000000000000000000000000000000010100000000000000011000000000000000000
0000000000000000000000000001000000000000000000001010000000000000000000
0000000000000000000000000000000000000000000000000000000000000000000000
0000000000000000000000101000000000000000111000000000000000000000000000
0000000000000000000000000000000000000000000000000000000000000000000000
0000000000000000000000000000000000000000000000000000000000000000000000
0000000001000110000000000000001110000000000000000000000000000000000000
0000001010000000000000000000000000000000000000000000000000000000000000
0000000000000000000000000000000000000000000000000000000000000000000000
0100100000000000000011100000000000000000000000000000000000000000010000
0000000000000000000000000000000000000000000000000000000000000000000000
0000000000000000000000000000000000000000000000000000000001010010110000
0000000001110000000000000000000000000000000000000000000010101000000000
0000000000100000000000000000000000000000000000000000000000000000000000
0000000000000000000000000000000000000000000000000100100100001000000001
1110000000000000000000000000000000000000011011000001000000000000000100
0000000000000000000000000000000000000000000000000000000000000000000000
0000000000000000000000000000000000010100100110111010110100011100000000
0000000000000000000000000000111010101011000000000000000000000000000000
0000000000000000000000000000000000000000000000000000000000000000000000
0000000000000000000000000001010100100010101101111101100000000000000000
0000000000000000010110101010001010000000000000000000000000000000000000
0000000000000000000000000000000000000000000000000000000000000000000000
0000000000000101010010110101010111100111010100000000000000000000000000
0000000010100101010100000000000000000000100000000000000000000000000000
0000000000000000000000000000000000000000000000000000000000000000000000
0001001010101010010000110100001011100000000000000000000000000000000010
1100010100101000000000000010000000000000000000000000000000000000000000
0000000000000000000000000000000000000000000000000000000000000000100101
0100010010101101011010101010000000000000000000000000000010010010101010
0001000000000000000000000000000000000000000000000000000000000000000000
0000000000000000000000000000000000000000000000000010100101010101001001
0011010001001010100000000000000000000000000001010110100101011000000000
0000000000000000000000000000000000000000000000000000000000000000000000
0000000000000000000000000000000000000000000101001010010101001011001010
1001101010000000000000000000000000000101001010101001010100000000000000
1000000000000000000000000000000000000000000000000000000000000000000000
0000000000000000000000000101001010010101010000010100110010000100010100
0000000000000000000000001010011001001010000100000000000001000000000000
0000000000000000000000000000000000000000000000000000000000000000000000
0000000000000000011100010101001001010100101110010101011010100000000000
0000000000000000101101001010101010000000000000000000000000000000000000
0000000000000000000000000000000000000000000000000000000000000000000000
0000000011110100101001010100101011101010010010101100000000000000000000
0000101001111010101001100000000000000000000000000000000000000000000000
0000000000000000000000000000000000000000000000000000000000000000000011
1111010101000100111111110101010010010100100000000000000000000001001011
1010100101110000000000000000001000000000000000000000000000000000000000
0000000000000000000000000000000000000000000000000000000000011111101001
0101010100001111101010010101101000000000000000000000001011110000101010
1110000000000000000000000000000000000000000000000000000000000000000000
0000000000000000000000000000000000000000000000001111001001001001100000
0000011110101001001010000000000000000000000101111000000001011100000000
0000000100000000000000000000000000000000000000000000000000000000000000
0000000000000000000000000000000000000000011101001001010000000000000111
0101010101010000000000000000000001011100000000010100000000000000000000
0000000000000000000000000000000000000000000000000000000000000000000000
0000000000000000000000000000000010100100101000000000000001111101001010
1010000000000000000001011110000000000101000000000000000000001000000000
0000000000000000000000000000000000000000000000000000000000000000000000
0000000000000000000000010100101000000000000000000111010100101010110000
0000000001010011100000000001010000000000000000000000000000000000000000
0000000000000000000000000000000000000000000000000000000000000000000000
0000000000000100100010000000000000000001111010101010011011101001010111
0011110000000000001000000000000000000100000000000000000000000000000000
0000000000000000000000000000000000000000000000000000000000000000000000
0000101010000000000000000000001111010100110111111111101111010101110000
0000000011000000000000000000000000000000000000000000000000000000000000
0000000000000000000000000000000000000000000000000000000000000010100010
1000000000000000000001110100101011111111110111110101111100000000000100
1000000000000000000010000000000000000000000000000000000000000000000000
0000000000000000000000000000000000000000000000000000010101000000000000
0000000000011110101001000010111111110100001110000000010000100000000000
0000000000000000000000000000000000000000000000000000000000000000000000
0000000000000000000000000000000000000000000101001000000000000000000000
0011110101010111111011101101010111100000000000011000000000000000000100
0000000000000000000000000000000000000000000000000000000000000000000000
0000000000000000000000000000000001111011000010000000000000000011101001
0100101111111111100101111000000001000111000000000000000000000000000000
0000000000000000000000000000000000000000000000000000000000000000000000
0000000000000000000000101111100000001000000100000000011110100101100000
1111010010101100000100000000000000000000000000000010000000000000000000
0000000000000000000000000000000000000000000000000000000000000000000000
0000000000000000001000000000010000000000000111010101010000000000000000
1111000000100100011000000000000000000100000000000000000000000000000000
0000000000000000000000000000000000000000000000000000000000000000000000
0010110101000000100001001000000001111010101000000000000000101111100000
0010000010000000000000000000000000000000000000000000000000000000000000
0000000000000000000000000000000000000000000000000000000000000010001000
0000000000000000100000011101010011000000000000000101110000010000100010
0000000000000000000000000000000000000000000000000000000000000000000000
0000000000000000000000000000000000000000000000000000001101010000100100
1001000000000111101010010000000000000010111100000001000001110000000000
0000000010010000000000000000000000000000000000000000000000000000000000
0000000000000000000000000000000000000000001010010100000000000000001000
0001111010101010000000000000011111000010001000001110000000000000000000
0000000000000000000000000000000000000000000000000000000000000000000000
0000000000000000000000000000000111010010000000010010010000000001111111
1101000000000000011111110000000000001011000000000000000000000000000000
0000000000000000000000000000000000000000000000000000000000000000000000
0000000000000000001111101010101000000000000001000000011111011111000000
0000000111111100000101000001010000000000000000010000000000000000000000
0000000000000000000000000000000000000000000000000000000000000000000000
0000000000101101001010000000100100000000000111101001110000000000000000
1111000000000001100000000000000000000000100000000000000000000000000000
0000000000000000000000000000000000000000000000000000000000000000000000
0000010100100000000000100000000011111010100100000000000001011111100000
1000001000000000000000000000000000000000000000000000000000000000000000
0000000000000000000000000000000000000000000000000000000000000000101010
1010000000000000000000111101010101000000000000001011110000000000010000
0000000000000001001010000000000000000000000000000000000000000000000000
0000000000000000000000000000000000000000000000000000000001010100000001
0000000000001111010101010000000000000010111110000000000110000000000000
0000000000000000000000000000000000000000000000000000000000000000000000
0000000000000000000000000000000000000000000010101001010000000000000000
1011110101010100000000000001011111000000000110000000000000000000000000
1000000000000000000000000000000000000000000000000000000000000000000000
0000000000000000000000000000000000000101010100000000000000001111101010
1010000000000000010011111100000000101000000000000000000001000000000000
0000000000000000000000000000000000000000000000000000000000000000000000
0000000000000000000000000000101010100000000000001011111010101010000000
0000000010111110000000111000000000000000000001000001000000000000000000
0000000000000000000000000000000000000000000000000000000000000000000000
0000000000001001001010101110000000000001111110100101010000000000000010
0111111100010010000000000000000000000100000000000000000000000000000000
0000000000000000000000000000000000000000000000000000000000000000000000
0000000001010100110100010101111101010101010100000000000010101011111011
0111000000000000000000000000010000000000000000000000000000000000000000
0000000000000000000000000000000000000000000000000000000000000000000001
0101010101110101111111010101010101100000000000101010111111111001000000
0000000000000000000000000000000000000000000000000000000000000000000000
0000000000000000000000000000000000000000000000000000000100001010101011
0111111110110101010101011111000000101010101011110010100000000000000000
0010010001010000000000000000000000000000000000000000000000000000000000
0000000000000000000000000000000000000000000000000000101010101111011011
0110101010100010111111111000010110101111011000000000000000000000001000
0000000000000000000000000000000000000000000000000000000000000000000000
0000000000000000000000000000000000000000010101010101111010101010101010
1000000111110000011010101010101000000000000000000000000000010000000000
0000000000000000000000000000000000000000000000000000000000000000000000
0000000000000000000000000000000000101010101101010101010101010000000000
0010000001010101101011100000000000000000000000100001000000000000000000
0000000000000000000000000000000000000000000000000000000000000000000000
0000000000000000010000101010101110101010101010101000000000000000000001
0110101101010100000001000000001001000010000000000000000000000000000000
0000000000000000000000000000000000000000000000000000000000000000000000
0000000000000110101001110101010101011000000000000000000000001010101101
0110100000000000000000000000000000000000000000000000000000000000000000
0000000000000000000000000000000000000000000000000000000000000000000000
1110101011011010101011011000000000000000000000000101010110100101010000
0010001000000010101001000000000000000000000000000000000000000000000000
0000000000000000000000000000000000000000000000000000000000000101110001
0111010101010100000000000000000000000000011010100000101010100000000000
0100000000000000000000000000000000000000000000000000000000000000000000
0000000000000000000000000000000000100001000000001010111000000110110101
0100000000000000000000000000001001000000010101000000100000000000010010
0000000000000000000000000000000000000000000000000000000000000000000000
0000000000000000000000000000000000000101010110000000000001101000000000
0000000000000000000000011000000001001010000000010000100010000010000000
0000000000000000000000000000000000000000000000000000000000000000000000
0000000000000000000000000000101011000000000000010100000000000000000000
0000000000010100001001101000000100100000000000001000000000000000000000
0000000000000000000000000000000000000000000000000000000000000000000000
0000101000001000000010111000000000000111110000000000000000000000000000
0001010000010101100101100000010001010010000000000000000000000000000000
0000000000000000000000000000000000000000000000000000000000000000011110
0000000110101100010000100001110000000000000000000000000000100001000100
0101010011110010010000000000001000000000000000000000000000000000000000
0000000000000000000000000000000000000000000000000000000011111010000010
1011100000000000001110000000000000000000000000000000011000100111111010
1010000000010010101000000000000000000000000000000000000000000000000000
0000000000000000000000000000000000000000000010011111111000101111000010
0000100011100000000000000000000000010000000000000111111111100001010010
0000000001010000000000000000000000000000000000000000000000000000000000
0000000000000000000000000000000000000000111111111111111110001000000011
1100000000000000000000000000001000101011111111010101000000010101010100
0000000000000000000000000000000000000000000000000000000000000000000000
0000000000000000000000000000100010111111111111111100000101111000000000
0000000000100000001000000011111110101000000101000000000000100000000000
0000000000000000000000000000000000000000000000000000000000000000000000
0000000000000001000000010010111111111111111100001111000001000100000000
0000000000000101111100100010101000001010010101001001000000000000000000
0000000000000000000000000000000000000000000000000000000000000000000000
0000000010010001000010101111111111110111100010000000000100000001000000
1000111100101010000001010000001000010001000000000000000000000000000000
0000000000000000000000000000000000000000000000000000000000000000000000
0000001010010101011111111111111100000000000000000000000100000010111010
1000001010000010010000100101000010000000000000000000000000000000000000
0000000000000000000000000000000000000000000000000000000000000010000000
0000010010111111111110000000000000000100000000001000001001000101010000
1000001001000100010100000000000000000000000000000000000000000000000000
0000000000000000000000000000000000000000000010000100001000101010010010
0101111111110000100100100000010000000000010010101001000001000001000000
1000010000000000000000000000000000000000000000000000000000000000000000
0000000000000000000000000000000000000000000000100000001001001001011111
1100100000000000000000001000100001010010000101000101000100100010100110
0010000000000000000000000000000000000000000000000000000000000000000000
0000000000000000000000000000000100000000010000001001000001011100000000
0000000000000001000100101010010100001000000000000010000100100000000000
0000000000000000000000000000000000000000000000000000000000000000000000
0000000000000001000000000001000001001000100101001011111010010010010001
0000000000110100010000010000100101010100010100010000100000000000000000
0000000000000000000000000000000000000000000000000000000000000000000000
0000000100000010000010000001000010010100101111110000000000000000001001
1101010010100010000000000000100001010010000000000000000000000000000000
0000000000000000000000000000000000000000000000000000000000000000000000
0100000100000100000100001000100101111111110000100010010001110100100100
0010001001001000100010000010101001000000000000000000000000000000000000
0000000000000000000000000000000000000000000000000100000000000000000001
0000001000010001000100100111111111100000000010111010100100010000000000
0001000100001010001000000000000000000000000000000000000000000000000000
0000000000000000000000000000000000000000000000000000010000000100100001
0001000100010010010111111111001000111101000100010001010010010000000001
0100010101100100000000000000000000000000000000000000000000000000000000
0000000000000000000000000000000000010001000000100000000010000000100010
0100100101011111111111111101010100100010000000000010010101000010010000
0000010000000000000000000000000000000000000000000000000000000000000000
0000000000000000000000000000000000000000001000001010000010000001001000
1001111111111101001000100010001001010010000000000100010010110100000000
0000000000000000000000000000000000000000000000000000000000000000000000
0000000000010000000000100010010000000000000100001010000001001000000101
1010101001000100010000000000001001001000100100100000010000000000000000
0000000000000000000000000000000000000000000000000000000000000000000000
0000010001000000000000101000100100001000001010000100101010000100000000
0100010001010010010000000100100010010101100000100000000000000000000000
0000000000000000000000000000000000000000000000000000000001000000000000
0001000000000001000000010000010000001000000000001000010010100000000000
0000000000101000000100010000100010100000000000000000000000000000000000
0000000000000000000000000000000000000000001000000010000010000000010100
1000000100100001000001001000101001001000000000000010100100100100100100
0000101000100010100100000000100000000000000000000000000000000000000000
0000000000000000000000000000000000100000001000000010000000000001000000
0100001010010001000000000000010100100100000001000001000000100100000100
1010010100010101000000000000000000000000000000000000000000000000000000
0000000000000000001000000001000000001010001000010010000100100001000000
0001000101010100100000000000010010000100000101000000010100010001001010
0000001001010000000000000000000000000000000000000000000000000000000000
0000100000100000000100010000000000100000001000000010000100101000100000
0001000001001010100000010000101000000010100000100010010100100101000000
0000000000000000000000000000000000000000000000000000000010001000000000
0010010000010000010010000010100000101000001000010000100010010000010100
0000000010100001000000101010000101000100010001010100001010100101001000
0000000000000000000000000000000000001000100100010001000100100000000100
0000100000010100000101000001010010100001000000100010100000101010010000
0010001001000000001000001001010010010010101000000000000000100000000000
0000010001000100100100100000100000000000000100000010010000010010001010
0000010000001010000000000101000101000010000101000000010001010000100010
0101010100101001000101010010100001010101001010000101010101001010000000
1000000000000010000001001001001000010100000010100100010000001010010101
0000010101010100000100001010001000000101010001000010100010000000000010
0010010100010010101010100000001000001000000000000000001010000001001001
0010001001000000000100010000010100000000010001010000010000010101000010
0000101010010100010100101010000010100101000101001010101010001000100010
1010010010